<svg version="1" xmlns="http://www.w3.org/2000/svg" width="89" height="71" viewBox="65.795 70.036 89 71" enable-background="new 65.795 70.036 89 71"><path fill="#EC008C" d="M76.369 138.973l.009-44.085h-9.802v-5.028h9.802v-19.076h6.876v19.076h34.396l-7.789 5.028h-26.607v44.085"/><path fill="#fff" d="M147.655 138.954l.028-9.337h-.25c-.726 1.588-1.795 3.05-3.209 4.383-1.414 1.333-3.028 2.46-4.841 3.381-1.812.922-3.752 1.635-5.819 2.144-2.067.507-4.115.762-6.145.762-4.279 0-7.996-.683-11.15-2.047-3.155-1.366-5.785-3.238-7.888-5.62-2.103-2.381-3.662-5.144-4.677-8.286-1.015-3.143-1.522-6.46-1.522-9.953 0-3.491.507-6.81 1.524-9.952 1.015-3.143 2.575-5.905 4.68-8.286 2.104-2.381 4.734-4.27 7.891-5.667 3.156-1.396 6.875-2.096 11.157-2.096 2.104 0 4.154.223 6.149.667 1.995.445 3.863 1.128 5.605 2.047 1.741.921 3.283 2.047 4.626 3.381 1.342 1.333 2.376 2.889 3.102 4.666h.222v-28.21h6.876v68.023h-6.359zm-37.564-17.008c.688 2.51 1.777 4.749 3.264 6.717 1.487 1.97 3.391 3.573 5.712 4.812 2.321 1.238 5.114 1.857 8.378 1.857 3.626 0 6.69-.619 9.193-1.857 2.502-1.239 4.534-2.842 6.093-4.812 1.56-1.969 2.684-4.208 3.372-6.717.689-2.509 1.034-5.034 1.034-7.575 0-2.541-.345-5.065-1.034-7.574-.688-2.51-1.812-4.749-3.372-6.718-1.56-1.969-3.591-3.573-6.093-4.812-2.502-1.238-5.566-1.857-9.193-1.857-3.265 0-6.057.619-8.378 1.857-2.321 1.239-4.225 2.843-5.712 4.812-1.487 1.97-2.575 4.209-3.264 6.718s-1.033 5.034-1.033 7.574c.001 2.542.345 5.066 1.033 7.575z"/></svg>