<?xml version="1.0" encoding="utf-8"?>
<!-- Generator: Adobe Illustrator 15.0.0, SVG Export Plug-In . SVG Version: 6.00 Build 0)  -->
<!DOCTYPE svg PUBLIC "-//W3C//DTD SVG 1.0//EN" "http://www.w3.org/TR/2001/REC-SVG-20010904/DTD/svg10.dtd">
<svg version="1.0" id="Layer_1" xmlns="http://www.w3.org/2000/svg" xmlns:xlink="http://www.w3.org/1999/xlink" x="0px" y="0px"
	 width="89px" height="71px" viewBox="65.795 70.036 89 71" enable-background="new 65.795 70.036 89 71" xml:space="preserve">
<g>
	<path fill="#EC008C" d="M76.369,138.973l0.009-44.085h-9.802V89.86h9.802V70.784h6.876V89.86h34.396l-7.789,5.028H83.254v44.085"/>
	<path fill="#FFFFFF" d="M147.655,138.954l0.028-9.337h-0.25c-0.726,1.588-1.795,3.05-3.209,4.383
		c-1.414,1.333-3.028,2.46-4.841,3.381c-1.812,0.922-3.752,1.635-5.819,2.144c-2.067,0.507-4.115,0.762-6.145,0.762
		c-4.279,0-7.996-0.683-11.15-2.047c-3.155-1.366-5.785-3.238-7.888-5.62c-2.103-2.381-3.662-5.144-4.677-8.286
		c-1.015-3.143-1.522-6.46-1.522-9.953c0-3.491,0.507-6.81,1.524-9.952c1.015-3.143,2.575-5.905,4.68-8.286
		c2.104-2.381,4.734-4.27,7.891-5.667c3.156-1.396,6.875-2.096,11.157-2.096c2.104,0,4.154,0.223,6.149,0.667
		c1.995,0.445,3.863,1.128,5.605,2.047c1.741,0.921,3.283,2.047,4.626,3.381c1.342,1.333,2.376,2.889,3.102,4.666h0.222v-28.21
		h6.876v68.023H147.655L147.655,138.954z M110.091,121.946c0.688,2.51,1.777,4.749,3.264,6.717c1.487,1.97,3.391,3.573,5.712,4.812
		c2.321,1.238,5.114,1.857,8.378,1.857c3.626,0,6.69-0.619,9.193-1.857c2.502-1.239,4.534-2.842,6.093-4.812
		c1.56-1.969,2.684-4.208,3.372-6.717c0.689-2.509,1.034-5.034,1.034-7.575c0-2.541-0.345-5.065-1.034-7.574
		c-0.688-2.51-1.812-4.749-3.372-6.718c-1.56-1.969-3.591-3.573-6.093-4.812c-2.502-1.238-5.566-1.857-9.193-1.857
		c-3.265,0-6.057,0.619-8.378,1.857c-2.321,1.239-4.225,2.843-5.712,4.812c-1.487,1.97-2.575,4.209-3.264,6.718
		s-1.033,5.034-1.033,7.574C109.059,116.913,109.403,119.437,110.091,121.946z"/>
</g>
</svg>
